<svg xmlns="http://www.w3.org/2000/svg" xmlns:xlink="http://www.w3.org/1999/xlink" viewBox="0 0 741.686 741.861" xmlns:v="https://vecta.io/nano"><defs><clipPath id="A"><path d="M603.348 50.052S505.52 62.716 453.6 173.46 317.58 311.108 326.16 400.5s55.9 94.064 116.626 133.616-6.128 114.7 89.128 161.186c59.6 29.07 138.7-62.3 221.62-37.7 47.64 14.13 178.926 17.405 210.462-63.285S902.852 418.7 916.58 355.408s83.91-372.666-313.232-305.356z" transform="translate(-325.55 -40.529)" fill="none"/></clipPath><linearGradient id="B" x1=".344" y1=".5" x2=".761" y2=".5"><stop offset="0" stop-color="#5b9af1"/><stop offset="1" stop-color="#70b9f9" stop-opacity="0"/></linearGradient><linearGradient id="C" x1=".708" y1=".985" x2=".31" y2=".356" xlink:href="#B"/><linearGradient id="D" x1=".339" y1="1.141" x2=".464" y2=".427"><stop offset="0" stop-color="#2284c6"/><stop offset="1" stop-color="#2284c6" stop-opacity="0"/></linearGradient><linearGradient id="E" x1=".843" y1=".955" x2=".363" y2=".481" xlink:href="#D"/><linearGradient id="F" x1="1.027" x2=".463" xlink:href="#B"/><linearGradient id="G" x1="0" x2="1" xlink:href="#B"/><linearGradient id="H" y1=".5" x2="1" y2=".5"><stop offset="0" stop-color="#192765"/><stop offset="1" stop-color="#193d7c" stop-opacity="0"/></linearGradient><radialGradient id="I" cx=".608" cy=".534" r=".5" gradientTransform="matrix(0.465, 0.885, -0.885, 0.465, 0.797, -0.253)"><stop offset=".005" stop-color="#fbe54f"/><stop offset=".327" stop-color="#fae04b"/><stop offset=".687" stop-color="#f8d242"/><stop offset="1" stop-color="#f6c136"/></radialGradient><linearGradient id="J" y1=".5" x2="1" y2=".5"><stop offset="0" stop-color="#fb904f"/><stop offset="1" stop-color="#fbd74f" stop-opacity="0"/></linearGradient><radialGradient id="K" cx="-5.354" cy="20.433" r=".5" gradientTransform="matrix(0.929, 0.37, -0.37, 0.929, 6.389, 3.02)"><stop offset=".005" stop-color="#76e5b0"/><stop offset=".268" stop-color="#71e2ae"/><stop offset=".563" stop-color="#63dbaa"/><stop offset=".872" stop-color="#4dcfa2"/><stop offset="1" stop-color="#42ca9f"/></radialGradient><linearGradient id="L" y1=".5" x2="1" y2=".5"><stop offset=".005" stop-color="#76e5b0"/><stop offset=".26" stop-color="#71e0ae"/><stop offset=".546" stop-color="#64d2aa"/><stop offset=".846" stop-color="#4fbca3"/><stop offset="1" stop-color="#42ae9f"/></linearGradient><radialGradient id="M" cx=".614" cy=".391" r=".5" gradientTransform="translate(0)"><stop offset="0" stop-color="#70b9f9" stop-opacity="0"/><stop offset="1" stop-color="#5894f5"/></radialGradient><path id="N" d="M358.36 247.477c2.453 14.97 4.138 30.057 5.05 45.2.45 8.563-5.156 16.273-13.44 18.483-5.846 1.56-13.454 3.7-22.307 6.47 0 0 18.3 31.127 61.4 31.134 41.876.007 57-28.5 57-28.5s-5.86-2.538-14.318-5.532a23.3 23.3 0 0 1-15.631-20.74c-.743-14.733-.556-37.784 4.936-61.82 9.232-40.388-62.68 15.305-62.68 15.305z"/><path id="O" d="M111.93 473.293s6.8 19.407 45.606 17.1 96.46-36.4 96.46-36.4l-40.45-81.548-93.722 83.2z"/><path id="P" d="M339.067 307.546s-85.726 20.827-148.208 72.46c0 0 5.264 51.512 44.722 93.287 0 0 41.875-20.057 60.955-35.513s42.53-130.234 42.53-130.234z"/><path id="Q" d="M339.067 307.546s33.324 50.427 99.535 3.074c0 0 79.806 29.38 92.96 108.3s-11.84 233.057-11.84 233.057H284.803s-9.45-67.84-6.7-149.306c2.283-68.072-24.1-142.943 60.974-195.125z"/><path id="R" d="M448.688 481.956s5.264 91.318 1.755 123.33-9.65 46.7-9.65 46.7h48.184s44.12-74.764 44.012-165.968"/><path id="S" d="M291.25 37.475c-10.152 17.1-14.72 61.745 36.64 70.558s78.105.67 87.347 16.166c7.534 12.65-6.784 21.15-2.438 49.054 1.587 10.152 25.274 2.257 26.975 17.07s-28.36 57.405-21.517 64.09 40.967-37.133 49.967-60.78 19.58-80.18-.067-113.224c-14.867-24.993-34.95-34.743-53.67-37.556s-13.6-22.957-33.27-26.566-17.124 29.084-34.583 20.445-43.965-18.476-55.384.743z"/><path id="T" d="M176.903 50.1c-1.205-6.75-11.137-10.313-30.363-10.822-3.884-.134-8.023-.134-12.416.12 1.248 1.98 2.312 4.068 3.18 6.24 1.467-.06 2.933-.06 4.333-.06h4.708c9.55.254 15.6 1.333 19.227 2.545 3.7 1.145 4.97 2.418 5.1 3.12.255 1.4-2.993 6.616-20.693 14-2.672 1.085-5.47 2.163-8.465 3.18-14.07 5.1-31.576 9.617-50.166 13.052-20.687 3.817-38.072 5.478-51.566 5.732-21.068.382-32.78-2.55-33.357-5.672s9.3-9.992 29.09-17.124c.062-2.372.317-4.735.763-7.065-20.754 7-37.878 15.918-36.156 25.4C1.65 90.96 16.357 93.7 34.566 93.7c2.732 0 5.47-.06 8.338-.188 16.64-.838 33.206-2.773 49.6-5.793a350.41 350.41 0 0 0 48.318-12.228c4.14-1.46 8.023-2.927 11.586-4.386 16.555-6.878 24.638-13.246 24.638-19.608a9.78 9.78 0 0 0-.133-1.396z"/><path id="U" d="M596.663 330.64a38.88 38.88 0 0 1-69.79 17.034 38.88 38.88 0 0 1 37.304-61.394c10.19 1.573 19.34 7.13 25.432 15.45s8.63 18.72 7.054 28.9z"/><path id="V" d="M623.33 334.743c.8-4.962-5.224-9.824-18.4-14.82-2.66-1.025-5.518-2.022-8.62-2.906.387 1.67.62 3.37.7 5.083 1.025.308 2.043.663 3.007 1l3.26 1.138c6.55 2.478 10.474 4.688 12.69 6.4 2.277 1.68 2.853 2.873 2.772 3.39-.16 1.03-3.67 3.857-17.7 4.694a124.21 124.21 0 0 1-6.63.161c-12.683-.02-25.344-1.052-37.864-3.08-12.56-1.833-24.953-4.67-37.06-8.485-14.68-4.828-22.073-9.677-21.718-11.974s8.847-4.674 24.263-4.828c.617-1.628 1.365-3.202 2.237-4.708-16.052-.16-30.056 1.868-31.154 8.847-.924 6.054 8.592 11.5 21.19 15.892a132.66 132.66 0 0 0 5.82 1.882c11.715 3.444 23.646 6.106 35.714 7.97a258.2 258.2 0 0 0 36.384 3.208c3.22-.02 6.26-.094 9.08-.248 13.112-.757 20.245-3.214 21.778-7.614a8.18 8.18 0 0 0 .248-.999z"/></defs><path d="M638.43 605.67c-31.51 80.657-162.78 77.41-210.462 63.278-82.88-24.577-159.84 61.832-221.6 37.683-98.18-38.392-28.394-121.587-89.12-161.185C56.514 505.918 1.854 501.67.622 411.824c-.623-45.05 48-94.794 90.588-153.3a236.99 236.99 0 0 0 36.864-73.706 232.41 232.41 0 0 1 3.054-9.8C166.774 67.546 282.104-4.258 395.194.196c236.17 9.3 304.773 222.81 249.86 332.626-19.32 38.627 4.962 113.5 5.98 180.286.64 33.357-2.096 65.635-12.604 92.563z" fill="#edf6ff"/><g clip-path="url(#A)" transform="translate(0 51.882)"><path d="M307.224 65.442s-32.888 28.582-7.266 83.885c13.052 28.174 28.16-44.407 28.16-44.407l12.02-40.945z" fill="#193d7c"/><use xlink:href="#N" fill="#70b9f9"/><use xlink:href="#N" fill="url(#B)"/><use xlink:href="#O" fill="#70b9f9"/><use xlink:href="#O" fill="url(#C)"/><use xlink:href="#P" fill="#0053fc"/><use xlink:href="#P" fill="url(#D)"/><use xlink:href="#Q" fill="#0053fc"/><use xlink:href="#Q" fill="url(#E)"/><use xlink:href="#R" fill="#70b9f9"/><use xlink:href="#R" fill="url(#F)"/><path d="M478.067 352.7s21.926-4.6 42.967 29.6S545.7 493.464 545.7 493.464 499 514.29 440.793 504.427c0 0-13.48-67.2-6.576-106.99s43.85-44.728 43.85-44.728z" fill="#0053fc"/><g fill="#70b9f9"><path d="M162.504 442.755s46.825-52.94 49.27-97.734 6.97-86.73 22.42-102.207 41.105-19.14 50.876-33.39 7.333-57.827-15.878-53.347-41.534 41.74-57 63.834-54.974 60.365-85.92 136.107-14.66 117.275-14.66 117.275 30.94-11.397 50.902-30.537z"/><path d="M282.506 193.566s-5.74 51.532 17.338 69.38 86.717 17.867 128.82-15.932 40.108-93.528 39.123-105.08C466.14 122.52 440.68 75.447 392.1 69.4c-37.8-4.715-91.626-26.982-103.05 71.683l-6.543 52.484z"/></g><path d="M282.506 193.566s-5.74 51.532 17.338 69.38 86.717 17.867 128.82-15.932 40.108-93.528 39.123-105.08C466.14 122.52 440.68 75.447 392.1 69.4c-37.8-4.715-91.626-26.982-103.05 71.683l-6.543 52.484z" fill="url(#G)"/><use xlink:href="#S" fill="#193d7c"/><use xlink:href="#S" fill="url(#H)"/><path d="M413.6 178.477a509.26 509.26 0 0 1-2.565 8.163c-6.83 21.383-26.82 22.856-40.24 18.724h-.06c-3.415-1.118-6.77-2.123-10.072-3.08l-3.53-.95c-.028-.03-.066-.05-.107-.054-9.356-2.632-18.31-4.648-27.156-6.6-1.413-.315-2.725-.978-3.817-1.93-2.967-2.578-7.3-5.74-10.842-5.907a5.11 5.11 0 0 0-3.382.763c-1.93 1.36-5.083 2.625-7.413 2.277-5.7-.864-10.742-1.46-14.947-1.848-3.57-.295-6.865-2.03-9.128-4.808-4.956-6.188-7.668-14.746-7.668-14.746l32.97-9.965 82-23.84a106.5 106.5 0 0 1 17.184 11.974c.016 0 .03.006.043.017s.018.027.017.043c.054.054.168.107.22.22 1.73 1.794 13.476 13.976 8.493 31.548z" fill="#d6edfc"/><path d="M292.424 115.22c16.2 1.092 51.974 3.9 85.74 14.58 16.343 5.114 25.584 22.37 20.78 38.808l-.214.723c-4.712 16.236-21.44 25.82-37.83 21.67-22.984-5.826-55.122-12.684-79.237-15.45-16.166-1.855-9.014-29.03-7.768-34.154 1.144-4.734 7.225-26.934 18.53-26.177z" fill="#fff"/><path d="M408.24 163.617s47.025 22.468 56.9 42.753c-2.8 6.453-6.836 12.296-11.88 17.2 0 0-20.892-11.943-56.85-25.53z" fill="#d6edfc"/></g><g transform="translate(4.775 192.113)"><circle cx="53.051" cy="53.051" transform="matrix(.297125 -.954839 .954839 .297125 22.118 101.309)" fill="url(#I)" r="53.051"/><use xlink:href="#T" fill="#f4b442"/><path d="M176.903 50.1c-1.205-6.75-11.137-10.313-30.363-10.822-3.884-.134-8.023-.134-12.416.12 1.248 1.98 2.312 4.068 3.18 6.24 1.467-.06 2.933-.06 4.333-.06h4.708c9.55.254 15.6 1.333 19.227 2.545 3.7 1.145 4.97 2.418 5.1 3.12.255 1.4-2.993 6.616-20.693 14-2.672 1.085-5.47 2.163-8.465 3.18-14.07 5.1-31.576 9.617-50.166 13.052-20.687 3.817-38.072 5.478-51.566 5.732-21.068.382-32.78-2.55-33.357-5.672s9.3-9.992 29.09-17.124c.062-2.372.317-4.735.763-7.065-20.754 7-37.878 15.918-36.156 25.4C1.65 90.96 16.357 93.7 34.566 93.7c2.732 0 5.47-.06 8.338-.188 16.64-.838 33.206-2.773 49.6-5.793a350.41 350.41 0 0 0 48.318-12.228c4.14-1.46 8.023-2.927 11.586-4.386 16.555-6.878 24.638-13.246 24.638-19.608a9.78 9.78 0 0 0-.133-1.396z" fill="url(#J)"/></g><path d="M472.55 71.056c-6.295 15.788-24.197 23.484-39.985 17.19s-23.484-24.196-17.2-39.985 24.196-23.485 39.984-17.19 23.484 24.198 17.19 39.987z" fill="url(#K)"/><path d="M492.392 78.95c1.493-3.683-2.277-8.505-11.565-14.693-1.868-1.266-3.9-2.545-6.134-3.777a22.06 22.06 0 0 1-.362 4.045c.737.422 1.453.877 2.143 1.313l2.317 1.453a40.47 40.47 0 0 1 8.652 7.192c1.46 1.7 1.687 2.72 1.534 3.1-.308.77-3.516 2.33-14.485.49a89.33 89.33 0 0 1-5.143-1.058 188.49 188.49 0 0 1-28.662-9.094c-9.37-3.638-18.434-8.025-27.1-13.12-10.46-6.322-15.31-11.378-14.626-13.092s7.655-2.036 19.575.583a26 26 0 0 1 2.558-3.235c-12.35-2.973-23.513-3.89-25.6 1.3-1.788 4.507 4.587 10.394 13.528 16.02a105.95 105.95 0 0 0 4.152 2.485 219.3 219.3 0 0 0 26.145 12.483 204.03 204.03 0 0 0 27.5 8.927c2.484.563 4.842 1.045 7.045 1.426 10.253 1.734 16.186 1.112 18.155-2.016.144-.233.27-.477.373-.73z" fill="url(#L)"/><g opacity=".3"><use xlink:href="#U" fill="#92c3fe"/><path d="M596.663 330.64a38.88 38.88 0 0 1-69.79 17.034 38.88 38.88 0 0 1 37.304-61.394c10.19 1.573 19.34 7.13 25.432 15.45s8.63 18.72 7.054 28.9z" fill="url(#M)"/><use xlink:href="#V" fill="#92c3fe"/><path d="M623.33 334.743c.8-4.962-5.224-9.824-18.4-14.82-2.66-1.025-5.518-2.022-8.62-2.906.387 1.67.62 3.37.7 5.083 1.025.308 2.043.663 3.007 1l3.26 1.138c6.55 2.478 10.474 4.688 12.69 6.4 2.277 1.68 2.853 2.873 2.772 3.39-.16 1.03-3.67 3.857-17.7 4.694a124.21 124.21 0 0 1-6.63.161c-12.683-.02-25.344-1.052-37.864-3.08-12.56-1.833-24.953-4.67-37.06-8.485-14.68-4.828-22.073-9.677-21.718-11.974s8.847-4.674 24.263-4.828c.617-1.628 1.365-3.202 2.237-4.708-16.052-.16-30.056 1.868-31.154 8.847-.924 6.054 8.592 11.5 21.19 15.892a132.66 132.66 0 0 0 5.82 1.882c11.715 3.444 23.646 6.106 35.714 7.97a258.2 258.2 0 0 0 36.384 3.208c3.22-.02 6.26-.094 9.08-.248 13.112-.757 20.245-3.214 21.778-7.614a8.18 8.18 0 0 0 .248-.999z" fill="url(#G)"/></g><path d="M128.344 635.867c-2.632 16.48-16.977 38.93 26.526 61.276 24.477 12.583 27.317 22.414 23.868 33.3-3.4 10.728-21.216 17.64-47.213 3.315s-68.824-43.925-64.98-99.6c2.913-42.178 70.665-53.804 61.798 1.72zM676.082 222.2s15.108 45.358 6.362 71.623-29.265 54.372-23.78 69.754 89.035 17.666 82.673-77.77-73.762-104.364-65.255-63.607z" fill="#edf6ff"/><g transform="translate(4.775 192.113)"><circle cx="53.051" cy="53.051" transform="matrix(.297125 -.954839 .954839 .297125 22.118 101.309)" fill="url(#I)" r="53.051"/><use xlink:href="#T" fill="#f4b442"/><path d="M176.903 50.1c-1.205-6.75-11.137-10.313-30.363-10.822-3.884-.134-8.023-.134-12.416.12 1.248 1.98 2.312 4.068 3.18 6.24 1.467-.06 2.933-.06 4.333-.06h4.708c9.55.254 15.6 1.333 19.227 2.545 3.7 1.145 4.97 2.418 5.1 3.12.255 1.4-2.993 6.616-20.693 14-2.672 1.085-5.47 2.163-8.465 3.18-14.07 5.1-31.576 9.617-50.166 13.052-20.687 3.817-38.072 5.478-51.566 5.732-21.068.382-32.78-2.55-33.357-5.672s9.3-9.992 29.09-17.124c.062-2.372.317-4.735.763-7.065-20.754 7-37.878 15.918-36.156 25.4C1.65 90.96 16.357 93.7 34.566 93.7c2.732 0 5.47-.06 8.338-.188 16.64-.838 33.206-2.773 49.6-5.793a350.41 350.41 0 0 0 48.318-12.228c4.14-1.46 8.023-2.927 11.586-4.386 16.555-6.878 24.638-13.246 24.638-19.608a9.78 9.78 0 0 0-.133-1.396z" fill="url(#J)"/></g><path d="M472.55 71.056c-6.295 15.788-24.197 23.484-39.985 17.19s-23.484-24.196-17.2-39.985 24.196-23.485 39.984-17.19 23.484 24.198 17.19 39.987z" fill="url(#K)"/><path d="M492.392 78.95c1.493-3.683-2.277-8.505-11.565-14.693-1.868-1.266-3.9-2.545-6.134-3.777a22.06 22.06 0 0 1-.362 4.045c.737.422 1.453.877 2.143 1.313l2.317 1.453a40.47 40.47 0 0 1 8.652 7.192c1.46 1.7 1.687 2.72 1.534 3.1-.308.77-3.516 2.33-14.485.49a89.33 89.33 0 0 1-5.143-1.058 188.49 188.49 0 0 1-28.662-9.094c-9.37-3.638-18.434-8.025-27.1-13.12-10.46-6.322-15.31-11.378-14.626-13.092s7.655-2.036 19.575.583a26 26 0 0 1 2.558-3.235c-12.35-2.973-23.513-3.89-25.6 1.3-1.788 4.507 4.587 10.394 13.528 16.02a105.95 105.95 0 0 0 4.152 2.485 219.3 219.3 0 0 0 26.145 12.483 204.03 204.03 0 0 0 27.5 8.927c2.484.563 4.842 1.045 7.045 1.426 10.253 1.734 16.186 1.112 18.155-2.016.144-.233.27-.477.373-.73z" fill="url(#L)"/><g opacity=".3"><use xlink:href="#U" fill="#92c3fe"/><path d="M596.663 330.64a38.88 38.88 0 0 1-69.79 17.034 38.88 38.88 0 0 1 37.304-61.394c10.19 1.573 19.34 7.13 25.432 15.45s8.63 18.72 7.054 28.9z" fill="url(#M)"/><use xlink:href="#V" fill="#92c3fe"/><path d="M623.33 334.743c.8-4.962-5.224-9.824-18.4-14.82-2.66-1.025-5.518-2.022-8.62-2.906.387 1.67.62 3.37.7 5.083 1.025.308 2.043.663 3.007 1l3.26 1.138c6.55 2.478 10.474 4.688 12.69 6.4 2.277 1.68 2.853 2.873 2.772 3.39-.16 1.03-3.67 3.857-17.7 4.694a124.21 124.21 0 0 1-6.63.161c-12.683-.02-25.344-1.052-37.864-3.08-12.56-1.833-24.953-4.67-37.06-8.485-14.68-4.828-22.073-9.677-21.718-11.974s8.847-4.674 24.263-4.828c.617-1.628 1.365-3.202 2.237-4.708-16.052-.16-30.056 1.868-31.154 8.847-.924 6.054 8.592 11.5 21.19 15.892a132.66 132.66 0 0 0 5.82 1.882c11.715 3.444 23.646 6.106 35.714 7.97a258.2 258.2 0 0 0 36.384 3.208c3.22-.02 6.26-.094 9.08-.248 13.112-.757 20.245-3.214 21.778-7.614a8.18 8.18 0 0 0 .248-.999z" fill="url(#G)"/></g><g fill="#76f4bd"><circle cx="78.176" cy="412.34" opacity=".5" r="11.873"/><circle cx="597.123" cy="171.262" opacity=".5" r="11.873"/></g><path d="M96.106 565.042c0 16.458-13.342 29.8-29.8 29.8s-29.8-13.342-29.8-29.8 13.342-29.8 29.8-29.8a29.8 29.8 0 0 1 29.8 29.8zm522.642-130.65c0 9.25-7.5 16.75-16.75 16.75s-16.75-7.5-16.75-16.75 7.5-16.75 16.75-16.75 16.748 7.5 16.75 16.75z" opacity=".5" fill="#fbe54f"/><path d="M657.75 629.666c-.002 22.19-18 40.176-40.18 40.175s-40.176-17.988-40.177-40.177 17.986-40.177 40.175-40.18c10.657-.001 20.878 4.232 28.413 11.768s11.77 17.756 11.768 28.413z" fill="#76d6b0" opacity=".5"/></svg>