<svg xmlns="http://www.w3.org/2000/svg" width="2157.329" height="663.825" viewBox="0 0 2157.329 663.825">
  <g id="Patterns" transform="translate(127.475 -697.98)">
    <ellipse id="Shape" cx="45.144" cy="44.55" rx="45.144" ry="44.55" transform="translate(1875.165 784.441)" fill="none" stroke="#fff" stroke-linejoin="round" stroke-miterlimit="10" stroke-width="23.236"/>
    <path id="Shape-2" data-name="Shape" d="M96.227,100.979h43.419c29.168,0,52.809-22.605,52.809-50.49S168.814,0,139.646,0H52.8C23.641,0,0,22.605,0,50.49" transform="translate(1825.781 929.376)" fill="none" stroke="#fff" stroke-linejoin="round" stroke-miterlimit="10" stroke-width="23.236"/>
    <path id="Shape-3" data-name="Shape" d="M52.94,92.664A46.6,46.6,0,0,0,99.791,46.332,46.6,46.6,0,0,0,52.94,0H0" transform="translate(1578.219 854.916)" fill="none" stroke="#fff" stroke-linejoin="round" stroke-miterlimit="10" stroke-width="23.236"/>
    <path id="Shape-4" data-name="Shape" d="M358.774,0H93.911A93.881,93.881,0,0,0,0,93.851" transform="translate(31.54 709.598)" fill="none" stroke="#fff" stroke-linejoin="round" stroke-miterlimit="10" stroke-width="23.236"/>
    <path id="Shape-5" data-name="Shape" d="M111.671,219.778c61.675,0,111.671-49.2,111.671-109.889S173.346,0,111.671,0,0,49.2,0,109.889" transform="translate(-115.857 960.264)" fill="none" stroke="#fff" stroke-linejoin="round" stroke-miterlimit="10" stroke-width="23.236"/>
    <path id="Shape-6" data-name="Shape" d="M102.619,51.678A51.311,51.311,0,1,1,51.31,0H152.063" transform="translate(99.746 771.373)" fill="none" stroke="#fff" stroke-linejoin="round" stroke-miterlimit="10" stroke-width="23.236"/>
    <path id="Shape-7" data-name="Shape" d="M0,105.074V35.758a35.64,35.64,0,1,1,71.28,0V174.39a35.64,35.64,0,1,1-71.28,0V157.639" transform="translate(775.137 709.661)" fill="none" stroke="#fff" stroke-linejoin="round" stroke-miterlimit="10" stroke-width="23.236"/>
    <path id="Shape-8" data-name="Shape" d="M0,0V180.372a98.009,98.009,0,1,0,196.019,0V137.756" transform="translate(708.609 720.29)" fill="none" stroke="#fff" stroke-linejoin="round" stroke-miterlimit="10" stroke-width="23.236"/>
    <path id="Shape-9" data-name="Shape" d="M0,0H213.814C295.184,0,361.15,66.22,361.15,147.9s-65.966,147.9-147.336,147.9H149.486" transform="translate(1407.148 750.373)" fill="none" stroke="#fff" stroke-linejoin="round" stroke-miterlimit="10" stroke-width="23.236"/>
    <path id="Shape-10" data-name="Shape" d="M0,0V65.331a85.537,85.537,0,0,0,85.544,85.544" transform="translate(504.275 1132.523)" fill="none" stroke="#fff" stroke-linejoin="round" stroke-miterlimit="10" stroke-width="23.236"/>
    <path id="Shape-11" data-name="Shape" d="M0,56.275a56.43,56.43,0,0,1,112.859,0V97.142A56.43,56.43,0,1,1,0,97.142Z" transform="translate(1787.689 1029.085)" fill="none" stroke="#fff" stroke-linejoin="round" stroke-miterlimit="10" stroke-width="23.236"/>
    <path id="Shape-12" data-name="Shape" d="M84.347,323.134V84.585A84.466,84.466,0,0,0,0,0" transform="translate(554.17 767.705)" fill="none" stroke="#fff" stroke-linejoin="round" stroke-miterlimit="10" stroke-width="23.236"/>
    <circle id="Shape-13" data-name="Shape" cx="38.016" cy="38.016" r="38.016" transform="translate(1398.833 901.248)" fill="none" stroke="#fff" stroke-linejoin="round" stroke-miterlimit="10" stroke-width="23.236"/>
    <path id="Shape-14" data-name="Shape" d="M109.3,215.027c60.358,0,109.3-48.135,109.3-107.513S169.654,0,109.3,0,0,48.135,0,107.513" transform="translate(1327.553 831.157)" fill="none" stroke="#fff" stroke-linejoin="round" stroke-miterlimit="10" stroke-width="23.236"/>
    <path id="Shape-15" data-name="Shape" d="M44.55,0A44.55,44.55,0,1,0,89.1,44.55V0" transform="translate(1207.566 793.253)" fill="none" stroke="#fff" stroke-linejoin="round" stroke-miterlimit="10" stroke-width="23.236"/>
    <path id="Shape-16" data-name="Shape" d="M213.839,0A106.919,106.919,0,0,1,106.919,106.919,106.919,106.919,0,0,1,0,0" transform="translate(246.48 953.911)" fill="none" stroke="#fff" stroke-linejoin="round" stroke-miterlimit="10" stroke-width="23.236"/>
    <path id="Shape-17" data-name="Shape" d="M92.663,177.011V46.332A46.332,46.332,0,1,0,0,46.332V66.561" transform="translate(460.319 841.36)" fill="none" stroke="#fff" stroke-linejoin="round" stroke-miterlimit="10" stroke-width="23.236"/>
    <path id="Shape-18" data-name="Shape" d="M0,177.371V46.157a46.332,46.332,0,1,1,92.663,0V177.371a46.332,46.332,0,1,1-92.663,0Z" transform="translate(305.88 756.612)" fill="none" stroke="#fff" stroke-linejoin="round" stroke-miterlimit="10" stroke-width="23.236"/>
    <path id="Shape-19" data-name="Shape" d="M224.53,0H119.9A119.944,119.944,0,0,0,0,119.987" transform="translate(1142.226 1047.371)" fill="none" stroke="#fff" stroke-linejoin="round" stroke-miterlimit="10" stroke-width="23.236"/>
    <path id="Shape-20" data-name="Shape" d="M44.55,88.518A44.26,44.26,0,1,0,0,44.259V332.638" transform="translate(-49.33 1029.167)" fill="none" stroke="#fff" stroke-linejoin="round" stroke-miterlimit="10" stroke-width="23.236"/>
    <path id="Shape-21" data-name="Shape" d="M118.8,0H67.359A67.535,67.535,0,0,0,0,67.716" transform="translate(828.596 1022.123)" fill="none" stroke="#fff" stroke-linejoin="round" stroke-miterlimit="10" stroke-width="23.236"/>
    <path id="Shape-22" data-name="Shape" d="M.387,0V168.695" transform="translate(991.746 1009.911)" fill="none" stroke="#fff" stroke-linejoin="round" stroke-miterlimit="10" stroke-width="23.236"/>
    <path id="Shape-23" data-name="Shape" d="M.365,0,.434,35.64" transform="translate(991.546 887.796)" fill="none" stroke="#fff" stroke-linejoin="round" stroke-miterlimit="10" stroke-width="23.236"/>
    <path id="Shape-24" data-name="Shape" d="M.365,0,.434,35.64" transform="translate(991.546 820.081)" fill="none" stroke="#fff" stroke-linejoin="round" stroke-miterlimit="10" stroke-width="23.236"/>
    <path id="Shape-25" data-name="Shape" d="M118.743,199.041C53.161,199.041,0,140.539,0,68.362A139.922,139.922,0,0,1,17.524,0" transform="translate(1127.97 790.035)" fill="none" stroke="#fff" stroke-linejoin="round" stroke-miterlimit="10" stroke-width="23.236"/>
    <path id="Shape-26" data-name="Shape" d="M150.154,0H69.313A111.077,111.077,0,0,0,0,24.561" transform="translate(1177.398 727.718)" fill="none" stroke="#fff" stroke-linejoin="round" stroke-miterlimit="10" stroke-width="23.236"/>
  </g>
</svg>
