<svg xmlns="http://www.w3.org/2000/svg" xmlns:xlink="http://www.w3.org/1999/xlink" viewBox="0 0 692.967 819.428" xmlns:v="https://vecta.io/nano"><defs><linearGradient id="A" x1=".5" x2=".5" y2="1"><stop offset="0" stop-color="#fbe34d"/><stop offset="1" stop-color="#f90"/></linearGradient><clipPath id="B"><path d="M719.15 266.014c51.756 68.407 87.105 105.325 80.268 200.09-6.563 91.11 64.614 127.8 48.313 244.666s-127.435 160.78-237.8 160.35c-111.1-.436-154.2-7.852-198.395-105.99-48.494-107.71-89.46-95.387-142.678-130.406-65.443-43.058-86.968-172.623-51.638-284.05s356.755-276.515 501.93-84.66z" transform="translate(-200.339 -177.931)" fill="none"/></clipPath><linearGradient id="C" x1=".251" y1=".815" x2=".888" y2=".139"><stop offset="0" stop-color="#5b9af1"/><stop offset="1" stop-color="#70b9f9" stop-opacity="0"/></linearGradient><linearGradient id="D" x1="1" y1=".5" x2="0" y2=".5" xlink:href="#C"/><linearGradient id="E" x1="1" y1=".5" x2="0" y2=".5"><stop offset="0" stop-color="#192765"/><stop offset="1" stop-color="#193d7c" stop-opacity="0"/></linearGradient><linearGradient id="F" x1="1.035" y1=".899" x2=".513" y2=".535"><stop offset="0" stop-color="#2284c6"/><stop offset="1" stop-color="#2284c6" stop-opacity="0"/></linearGradient><linearGradient id="G" x1=".379" y1=".719" x2=".713" y2=".208" xlink:href="#C"/><path id="H" d="M365.608 264.193a16.07 16.07 0 0 1 10.89 15.156c.423 12.173-4.272 23.487-8.543 31.39s-7.254 14.726-7.042 20.062 3.736 5.02 5.816.7 3.045-15.374 7.846-20.336 9.3-5.922 12.97-4c0 0 1.445 1.12 1.283 4.166s-1.6 7.846-3.842 16.495-3.2 21.45-7.7 28.338-16.812 14.732-21.93 20.336-17.3 13.66-39.073 43.55-38.855 56.784-63.618 78.56-56.794 14.514-56.794 14.514l22.2-80.268s51.376-20.523 68.388-34.284c15.74-12.727 40.492-36.6 41.775-46.843s-6.4-32.883.853-47.4 24.344-40.135 36.51-40.135z"/><path id="I" d="M123.477 251.267c11.532-16.656 49.957-28.182 78.78-16.015 0 0 30.74 19.857 42.273 48.04s28.182 70.45 13.45 94.148c-4.3 6.9-12.347 13.518-22.77 18.12h.006l-.187.075-.847.367c-3.686 1.62-16.252 7.727-16.98 16.07-.853 9.776 2.99 20.02 2.99 20.02s-24.776 10.548-48.687 7.13c0 0-1.706-25.25-17.08-42.94-3.867-4.452-.66-6.706 6.3-7.6a112.78 112.78 0 0 1-24.44-20.859c-48.03-53.8-24.33-99.916-12.805-116.566z"/><path id="J" d="M226.593 178.252s44.832 51.937 3.2 99.272c-15.7 17.852-28.823 19.278-29.465 29.465s12.49 24.975-2.56 36.507c-6.613 5.062 18.33 53.444 13.008 58.1s-14.284 11.062-38.62 10.43-61.233-36.227-75.58-66.613c-10.89-23.058-16.65-59.565 1.924-85.18s16.01-16.656 21.775-36.507 32.024-7.05 41-20.5 37.15-62.768 65.327-24.974z"/><path id="K" d="M142.462 438.777s-27.54 9.633-36.638 56.707c-8.966 46.383 17.422 83.263 36.638 122.97s24.34 74.3 24.34 74.3h170.37s25.4-220.114-78.78-262.063c0-.003-73.656-12.114-115.93 8.085z"/><path id="L" d="M345.066 468.796s96.072 53.375 107.6 70.878 9.82 26.906 0 35.013-86.252 16.227-166.1-20.492-48.68-87.105-30.74-94.79 56.607-9.38 89.24 9.4z"/></defs><path d="M530.016 182.287c51.756 68.407 87.105 105.325 80.268 200.09-6.563 91.11 64.614 127.8 48.313 244.666s-127.435 160.78-237.8 160.35c-111.1-.436-154.2-7.852-198.395-105.99-48.494-107.71-89.46-95.387-142.678-130.406-65.443-43.058-86.968-172.623-51.638-284.05S384.84-9.57 530.016 182.287z" fill="#edf6ff"/><rect width="399.329" height="248.244" rx=".73" transform="matrix(-.991 -.131 .131 -.991 660.352 505.94)" fill="#c0e0fc" opacity=".5"/><path d="M653.864 356.922L430.4 327.304c-.11-.014-.207-.07-.274-.158s-.096-.197-.082-.305l18.37-138.607c.014-.11.07-.207.158-.274s.197-.096.305-.082l223.463 29.618c.226.03.386.237.356.464l-18.37 138.606c-.03.227-.238.386-.465.356z" fill="#76f4bd" opacity=".5"/><path transform="matrix(-.991331 -.131391 .131391 -.991331 469.347 510.024)" opacity=".54" fill="url(#A)" d="M0 0h226.244v140.646H0z"/><g fill="#fff"><rect width="44.236" height="102.116" rx=".3" transform="matrix(-.991315 -.131512 .131512 -.991315 415.25 341.504)" opacity=".5"/><path d="M638.102 480.688L494.68 461.826a.3.3 0 0 1-.258-.337l13.236-100.65a.3.3 0 0 1 .337-.258l143.422 18.862a.3.3 0 0 1 .258.337l-13.236 100.65a.3.3 0 0 1-.337.258z" opacity=".5"/><rect width="44.236" height="102.116" rx=".3" transform="matrix(-.991 -.131 .131 -.991 359.539 334.239)" opacity=".5"/></g><g clip-path="url(#B)" transform="translate(11.206 94.204)"><path d="M245.072 271.036s-4.72-2.578-14.36.766c-9.134 3.17 11.557 19.62 11.557 19.62l7.82-16.283z" fill="#a9d5ed"/><use xlink:href="#H" fill="#70b9f9"/><use xlink:href="#H" fill="url(#C)"/><use xlink:href="#I" fill="#70b9f9"/><use xlink:href="#I" fill="url(#D)"/><use xlink:href="#J" fill="#193d7c"/><use xlink:href="#J" fill="url(#E)"/><path d="M219.4 326.46c3.145 11.115 7.553 22.6 18.132 22.9 4.894.118 11.24-2.66 16.918-6.47 6.65-4.408 12.39-10.15 13.6-14.08 4.172-13.78-5.5-42.72-17.765-54.085a20.21 20.21 0 0 0-5.2-3.686s6.463 4.894-18.132 23.93c-10.448 8.04-11.114 18.857-7.553 31.49z" fill="#fff"/><g fill="#d6edfc"><path d="M219.4 326.46c3.145 11.115 7.553 22.6 18.132 22.9 4.894.118 11.24-2.66 16.918-6.47-2.95 1.395-8.176 4.47-12.7-3.506-2.864-5.056-11.906-29.427-8.643-37.765 3.263-8.282 13.113-16.862 16.376-22.18a5.88 5.88 0 0 0 .791-4.714 20.21 20.21 0 0 0-5.2-3.686c0 0 6.463 4.894-18.132 23.93-10.448 8.042-11.114 18.858-7.552 31.492z"/><path d="M235.215 335.327s-60.978 49.64-115.9 44.994c-6.438-.542-14.732-14.813-15.293-20.187 0 0 82.81-1.152 122.728-46.906z"/></g><use xlink:href="#K" fill="#0053fc"/><use xlink:href="#K" fill="url(#F)"/><use xlink:href="#L" fill="#70b9f9"/><use xlink:href="#L" fill="url(#G)"/><path d="M455.84 571.698s49.342-43.126 68.142-107.174 35.013-107.6 35.013-107.6l-27.76-13.238s-5.118 25.623-16.22 40.137-50.5 60.63-66.67 85.4-17.3 46.756-29.334 43.873" fill="#70b9f9"/><path d="M359.157 464.1s-18.356 79.422-47.39 107.6c0 0-95.22-29.888-101.626-74.72s8.33-60.773 37.9-65.83 111.117 32.95 111.117 32.95z" fill="#0053fc"/><path d="M529.077 352.388s2.64-11.245 0-22.348-3.985-30.74 1.17-36.72c3.22-3.73 8.282-5.816 11.638-6.856a7.39 7.39 0 0 0 4.776-4.633c2.123-6.04 6.058-17.883 6.675-24.377.853-8.966.536-12.6 1.39-15.586s8.095-3.748 9.178 12.914c.915 13.954.1 17.086-.07 18.842-.623 6.613 1.638 8.9 6 13.923 4.32 4.975 8.742 12.123 8.064 20.075-1.283 15.056-5.442 19.54-10.25 29.147s-8.65 20.156-8.65 20.156l-16.65 7.385z" fill="#70b9f9"/></g><path d="M90.287 571.755s94.957 29.577 98.85 84.84-28.8 57.6-49.42 45.922-12.846-59.932-45.536-83.282-36.794-61.053-3.892-47.48zM539.65 147.56s-46.132-51.495-116.232-70.243c-32.8-8.767-55.6-39.82-31.134-67.784 21.793-24.907 111.04 1.04 155.667 53.967 38.967 46.214 38.4 107.927-8.3 84.06z" fill="#edf6ff"/><circle cx="103.779" cy="265.335" fill="#fbe54f" opacity=".5" r="19.09"/><circle cx="372.732" cy="147.236" fill="#76f4bd" opacity=".5" r="11.039"/><g fill="#fbe54f"><circle cx="11.206" cy="568.882" opacity=".5" r="11.206"/><path d="M540.69 662.284c-.001 11.21 6.75 21.315 17.106 25.605s22.276 1.92 30.202-6.007 10.297-19.846 6.007-30.202-14.396-17.107-25.605-17.106c-15.303.001-27.708 12.406-27.71 27.71z" opacity=".5"/></g><path d="M382.014 782.073a37.36 37.36 0 0 0 63.777 26.406 37.36 37.36 0 0 0-26.427-63.768c-9.908.001-19.41 3.938-26.413 10.945s-10.94 16.51-10.937 26.417z" fill="#76d6b0" opacity=".3"/></svg>